<svg xmlns="http://www.w3.org/2000/svg" xmlns:xlink="http://www.w3.org/1999/xlink" viewBox="0,0,256,256" width="64px" height="64px" fill-rule="nonzero"><g fill="#efca66" fill-rule="nonzero" stroke="none" stroke-width="1" stroke-linecap="butt" stroke-linejoin="miter" stroke-miterlimit="10" stroke-dasharray="" stroke-dashoffset="0" font-family="none" font-weight="none" font-size="none" text-anchor="none" style="mix-blend-mode: normal"><g transform="scale(4,4)"><path d="M44.64453,0.64844c-0.11328,0.00391 -0.22656,0.02344 -0.33594,0.07031l-1.85547,0.75c-0.44141,0.17969 -0.69531,0.64453 -0.60937,1.10938l0.67188,3.54688c-0.87109,0.63281 -1.63672,1.38281 -2.28516,2.23438l-3.52734,-0.72656c-0.46484,-0.09766 -0.93359,0.14844 -1.12109,0.58594l-0.78125,1.84375c-0.18359,0.4375 -0.03516,0.94531 0.35547,1.21484l2.97656,2.03125c-0.16797,1.05859 -0.17578,2.12891 -0.02344,3.19531l-3.01562,1.98047c-0.39453,0.26172 -0.55469,0.76563 -0.375,1.20703l0.75,1.85547c0.17578,0.44141 0.64063,0.69922 1.10938,0.60938l3.54297,-0.67187c0.63281,0.87109 1.38281,1.63672 2.23828,2.28125l-0.73047,3.53125c-0.09375,0.46484 0.15234,0.93359 0.58984,1.12109l1.84375,0.78125c0.4375,0.18359 0.94531,0.03516 1.21484,-0.35547l2.03125,-2.97656c1.05859,0.16406 2.12891,0.17578 3.19531,0.02344l1.98047,3.01563c0.1875,0.28516 0.50781,0.44922 0.83594,0.44922c0.125,0 0.25,-0.02344 0.37109,-0.07422l1.85547,-0.75c0.44531,-0.17578 0.69922,-0.64453 0.60938,-1.10937l-0.66797,-3.54297c0.87109,-0.63281 1.63672,-1.38281 2.28125,-2.23828l3.52734,0.73047c0.46484,0.08984 0.93359,-0.15234 1.12109,-0.58984l0.78125,-1.84375c0.18359,-0.4375 0.03516,-0.94531 -0.35547,-1.21484l-2.98047,-2.03125c0.16797,-1.05859 0.17578,-2.125 0.02734,-3.19141l3.01172,-1.98437c0.39844,-0.26172 0.55859,-0.76562 0.37891,-1.20703l-0.75,-1.85547c-0.17969,-0.44141 -0.64453,-0.69922 -1.10937,-0.60937l-3.54687,0.67188c-0.63281,-0.87109 -1.38281,-1.63672 -2.23437,-2.28125l0.72656,-3.53125c0.09766,-0.46484 -0.14844,-0.93359 -0.58594,-1.12109l-1.84375,-0.77734c-0.4375,-0.1875 -0.94531,-0.03906 -1.21484,0.35156l-2.03125,2.97656c-1.05859,-0.16406 -2.12891,-0.17187 -3.19531,-0.02344l-1.98047,-3.01172c-0.19531,-0.29687 -0.52734,-0.46484 -0.87109,-0.44922zM44.29688,2.87891l1.89063,2.875c0.22266,0.33984 0.62891,0.50781 1.03125,0.42969c1.24219,-0.25 2.49219,-0.23828 3.71875,0.03125c0.39453,0.08594 0.80859,-0.07422 1.04297,-0.41406l1.93359,-2.83984l0.33203,0.14063l-0.69531,3.36719c-0.08203,0.39844 0.08594,0.80859 0.42578,1.03516c1.04688,0.69141 1.92188,1.58594 2.60156,2.65234c0.21875,0.34375 0.62891,0.52344 1.03125,0.44531l3.375,-0.64062l0.13672,0.33594l-2.87109,1.89063c-0.34375,0.22266 -0.51562,0.63281 -0.43359,1.03125c0.25,1.24219 0.24219,2.49219 -0.03125,3.71875c-0.08594,0.39844 0.07422,0.80859 0.41406,1.03906l2.83594,1.93359l-0.14062,0.33594l-3.36328,-0.69922c-0.40234,-0.07812 -0.80859,0.08984 -1.03516,0.42969c-0.69141,1.04688 -1.58594,1.92188 -2.65234,2.60156c-0.34375,0.21875 -0.51953,0.62891 -0.44531,1.03125l0.63672,3.375l-0.33203,0.13672l-1.89062,-2.875c-0.18359,-0.28516 -0.50391,-0.44922 -0.83203,-0.44922c-0.06641,0 -0.13672,0.00391 -0.19922,0.01953c-1.24219,0.25 -2.49219,0.24219 -3.71875,-0.03125c-0.39453,-0.08594 -0.80859,0.07422 -1.03906,0.41406l-1.93359,2.83594l-0.33594,-0.14062l0.69922,-3.36328c0.08203,-0.39844 -0.08984,-0.80859 -0.42969,-1.03516c-1.04687,-0.69141 -1.92187,-1.58594 -2.60156,-2.65234c-0.21875,-0.34375 -0.625,-0.51953 -1.03125,-0.44531l-3.375,0.63672l-0.13672,-0.33203l2.875,-1.89062c0.33984,-0.22266 0.51172,-0.63281 0.43359,-1.03125c-0.25391,-1.24219 -0.24219,-2.49219 0.02734,-3.71875c0.08984,-0.39844 -0.07422,-0.80859 -0.41406,-1.03906l-2.83594,-1.93359l0.14063,-0.33203l3.36328,0.69531c0.40234,0.07813 0.8125,-0.08984 1.03516,-0.42969c0.69531,-1.04687 1.58594,-1.92187 2.65234,-2.60156c0.34375,-0.21875 0.51953,-0.62891 0.44531,-1.03125l-0.63672,-3.375zM49,9c-3.30859,0 -6,2.69141 -6,6c0,3.30859 2.69141,6 6,6c3.30859,0 6,-2.69141 6,-6c0,-3.30859 -2.69141,-6 -6,-6zM49,10.76172c2.33984,0 4.23828,1.89844 4.23828,4.23828c0,2.33984 -1.89844,4.23828 -4.23828,4.23828c-2.33984,0 -4.23828,-1.89844 -4.23828,-4.23828c0,-2.33984 1.89844,-4.23828 4.23828,-4.23828zM49,13c-1.10547,0 -2,0.89453 -2,2c0,1.10547 0.89453,2 2,2c1.10547,0 2,-0.89453 2,-2c0,-1.10547 -0.89453,-2 -2,-2zM21.78125,18c-0.91797,0 -1.71484,0.625 -1.9375,1.51563l-1.28125,5.08594c-1.40234,0.37891 -2.75,0.9375 -4.01562,1.67578l-4.50391,-2.70312c-0.78516,-0.47266 -1.79297,-0.35156 -2.44141,0.30078l-1.72656,1.72266c-0.64844,0.65234 -0.77344,1.65625 -0.30078,2.44531l2.69531,4.50391c-0.72656,1.26563 -1.28906,2.61328 -1.66016,4.01953l-5.09375,1.27344c-0.89062,0.22266 -1.51562,1.01953 -1.51562,1.94141v2.4375c0,0.91797 0.625,1.71484 1.51563,1.9375l5.08594,1.28125c0.37891,1.40234 0.9375,2.75 1.67578,4.01563l-2.70312,4.50391c-0.47266,0.78906 -0.35156,1.79297 0.30078,2.44531l1.72656,1.72266c0.64844,0.64844 1.65234,0.77344 2.44141,0.30078l4.50391,-2.69531c1.26172,0.72656 2.61328,1.28906 4.01953,1.66016l1.27734,5.09375c0.21875,0.89453 1.01563,1.51563 1.9375,1.51563h2.4375c0.91797,0 1.71484,-0.625 1.9375,-1.51562l1.28125,-5.08594c1.40234,-0.37891 2.75,-0.94141 4.01563,-1.67578l4.50391,2.70313c0.78516,0.47266 1.79297,0.35156 2.44531,-0.30078l1.72266,-1.72266c0.64844,-0.64844 0.77344,-1.65625 0.30078,-2.44531l-2.69141,-4.50391c0.72656,-1.26172 1.28516,-2.61328 1.65625,-4.01953l5.09375,-1.27344c0.89063,-0.22266 1.51563,-1.01953 1.51563,-1.94141v-2.4375c0,-0.92187 -0.625,-1.71875 -1.51562,-1.94141l-5.08594,-1.27734c-0.37891,-1.40234 -0.94141,-2.75391 -1.67578,-4.01562l2.70313,-4.50391c0.47266,-0.78906 0.35156,-1.79297 -0.30078,-2.44531l-1.72266,-1.72266c-0.65234,-0.64844 -1.65625,-0.77344 -2.44531,-0.30078l-4.50391,2.69141c-1.26562,-0.72656 -2.61328,-1.28516 -4.01953,-1.65625l-1.27344,-5.09375c-0.22266,-0.89062 -1.01953,-1.51562 -1.94141,-1.51562zM21.78125,20h2.4375l1.27344,5.09375c0.17578,0.69922 0.72266,1.25 1.42578,1.4375c1.23438,0.33594 2.42188,0.82813 3.53516,1.46875c0.63672,0.36719 1.41016,0.36328 2.02734,-0.00781l4.50391,-2.70312l1.72656,1.72656l-2.70312,4.50391c-0.37109,0.61719 -0.375,1.39453 -0.00781,2.02734c0.64063,1.11328 1.13281,2.30469 1.46875,3.53516c0.1875,0.70703 0.73828,1.25 1.4375,1.42578l5.09375,1.27344v2.4375l-5.09375,1.27344c-0.69922,0.17578 -1.25,0.72266 -1.4375,1.42578c-0.33594,1.23438 -0.83203,2.42188 -1.46875,3.53516c-0.36719,0.63281 -0.36328,1.41016 0.00781,2.02734l2.70313,4.50391l-1.72656,1.72656l-4.5,-2.70312c-0.62109,-0.37109 -1.39453,-0.375 -2.02734,-0.00781c-1.11328,0.64063 -2.30469,1.13281 -3.53906,1.46875c-0.70312,0.1875 -1.25,0.73828 -1.42578,1.4375l-1.27344,5.09375h-2.4375l-1.27344,-5.09375c-0.17578,-0.69531 -0.72266,-1.24609 -1.42578,-1.4375c-1.23437,-0.33594 -2.42187,-0.82812 -3.53516,-1.46875c-0.31641,-0.18359 -0.66797,-0.26953 -1.01562,-0.26953c-0.35156,0 -0.70312,0.08984 -1.01562,0.27734l-4.5,2.70313l-1.72656,-1.72656l2.70313,-4.5c0.37109,-0.61719 0.375,-1.39453 0.00781,-2.03125c-0.64062,-1.11328 -1.13281,-2.30078 -1.46875,-3.53516c-0.1875,-0.70703 -0.73828,-1.25391 -1.4375,-1.42578l-5.09375,-1.27344v-2.4375l5.09375,-1.27344c0.69531,-0.17187 1.24609,-0.72266 1.4375,-1.42578c0.33594,-1.23437 0.82813,-2.42187 1.46875,-3.53516c0.36719,-0.63672 0.36328,-1.41406 -0.00781,-2.03125l-2.70313,-4.5l1.72656,-1.72656l4.5,2.70313c0.61719,0.37109 1.39453,0.375 2.03125,0.00781c1.11328,-0.64062 2.30078,-1.13281 3.53516,-1.46875c0.70313,-0.1875 1.25,-0.73828 1.42578,-1.4375zM22.78906,29.00391c-1.38672,0.00781 -2.77734,0.23438 -4.08984,0.68359c-0.52344,0.17969 -0.80078,0.74609 -0.62109,1.26953c0.14063,0.41797 0.53125,0.67969 0.94531,0.67969c0.10547,0 0.21484,-0.01953 0.32422,-0.05859c2.21484,-0.75781 4.6875,-0.76562 6.90625,-0.03125c0.52734,0.16797 1.08984,-0.11328 1.26172,-0.64062c0.17578,-0.52344 -0.10937,-1.08594 -0.63281,-1.26172c-1.31641,-0.43359 -2.70703,-0.64844 -4.09375,-0.64062zM30.0625,31.54688c-0.25391,0.03125 -0.49609,0.15625 -0.66797,0.375c-0.33984,0.43359 -0.26562,1.0625 0.16797,1.40625c0.51953,0.41016 1.00781,0.87109 1.44141,1.37109c0.19922,0.22656 0.47656,0.33984 0.75781,0.33984c0.23047,0 0.46875,-0.08203 0.65625,-0.24609c0.41406,-0.36328 0.45703,-0.99609 0.09375,-1.41406c-0.51953,-0.58984 -1.09375,-1.13672 -1.71094,-1.62109c-0.21875,-0.17187 -0.48047,-0.23828 -0.73828,-0.21094zM23,34c-3.85937,0 -7,3.14063 -7,7c0,3.85938 3.14063,7 7,7c3.85938,0 7,-3.14062 7,-7c0,-3.85937 -3.14062,-7 -7,-7zM11.78125,35.58984c-0.39062,0.01172 -0.75391,0.25391 -0.90234,0.64063c-0.19922,0.51563 0.05859,1.09375 0.57422,1.29297l1.69922,0.65234c0.11719,0.04688 0.24219,0.06641 0.35938,0.06641c0.40234,0 0.78125,-0.24609 0.93359,-0.64453c0.19922,-0.51562 -0.0625,-1.08984 -0.57422,-1.28906l-1.69922,-0.65234c-0.12891,-0.05078 -0.26172,-0.07031 -0.39062,-0.06641zM23,36c2.75781,0 5,2.24219 5,5c0,2.75781 -2.24219,5 -5,5c-2.75781,0 -5,-2.24219 -5,-5c0,-2.75781 2.24219,-5 5,-5zM23,39c-1.10547,0 -2,0.89453 -2,2c0,1.10547 0.89453,2 2,2c1.10547,0 2,-0.89453 2,-2c0,-1.10547 -0.89453,-2 -2,-2zM12.82813,40.00391l-1.81641,0.03125c-0.55469,0.01172 -0.99609,0.46484 -0.98437,1.01563c0.01172,0.54688 0.45703,0.98438 1,0.98438h0.01953l1.81641,-0.03125c0.55469,-0.01172 0.99609,-0.46484 0.98438,-1.01953c-0.01172,-0.55078 -0.46094,-0.96094 -1.01953,-0.98047zM13.64063,43.73828c-0.13281,0 -0.26172,0.02734 -0.39062,0.07813l-1.67187,0.71484c-0.51172,0.21484 -0.74609,0.80078 -0.53125,1.3125c0.16016,0.37891 0.53125,0.60938 0.92188,0.60938c0.12891,0 0.26172,-0.02734 0.39063,-0.08203l1.67188,-0.71094c0.50781,-0.21484 0.74609,-0.80078 0.53125,-1.3125c-0.16016,-0.37891 -0.53516,-0.60937 -0.92187,-0.60937zM15.77734,46.90625c-0.25781,0 -0.51172,0.09766 -0.70703,0.29297l-1.28906,1.28516c-0.39062,0.39453 -0.39062,1.02344 0,1.41797c0.19531,0.19141 0.45313,0.28906 0.70703,0.28906c0.25781,0 0.51563,-0.09766 0.71094,-0.28906l1.28516,-1.28906c0.39063,-0.39062 0.39063,-1.02344 0,-1.41406c-0.19531,-0.19531 -0.44922,-0.29297 -0.70703,-0.29297z"></path></g></g></svg>